# xmcd
#
# Track frame offsets:
#	150
#	13293
#	29560
#	48774
#	74016
#	83512
#	95528
#	115620
#	124597
#	140385
#	153686
#	168507
#	184038
#	199335
#	210139
#	230790
#
# Disc length: 3302 seconds
# Revision: 0
# Processed by: cddbd v1.5.2PL0 Copyright (c) Steve Scherf et al.
# Submitted via: dBpowerAMP V12.0
#
DISCID=db0ce410
DTITLE=Mahalia Jackson - Complete Mahalia Jackson (1959-1960) - Vol 10
DYEAR=2012
DGENRE=Gospel
TTITLE0=Trouble Of The World
TTITLE1=He Must Have Known
TTITLE2=My Journey To The Sky
TTITLE3=Brown Baby
TTITLE4=You Must Be Born Again
TTITLE5=The Christian's Testimony
TTITLE6=If We Never Needed The Lord Before
TTITLE7=Come On Children, Let's Sing
TTITLE8=One Step
TTITLE9=Because His Name Is Jesus
TTITLE10=Keep A-Movin'
TTITLE11=A Christian Duty
TTITLE12=In The Garden
TTITLE13=Just As I Am
TTITLE14=Rock Of Ages
TTITLE15=Jesus, Savior, Pilot Me
EXTD=
EXTT0=
EXTT1=
EXTT2=
EXTT3=
EXTT4=
EXTT5=
EXTT6=
EXTT7=
EXTT8=
EXTT9=
EXTT10=
EXTT11=
EXTT12=
EXTT13=
EXTT14=
EXTT15=
PLAYORDER=
